<svg width="18" height="15" viewBox="0 0 18 15" fill="none" xmlns="http://www.w3.org/2000/svg">
<path fill-rule="evenodd" clip-rule="evenodd" d="M2.62464 4.12826C2.62479 3.41649 2.80892 2.71684 3.15918 2.09721C3.50944 1.47758 4.01393 0.95901 4.62369 0.59183C5.23344 0.22465 5.92776 0.0213253 6.63926 0.00158812C7.35076 -0.0181491 8.05528 0.146371 8.68446 0.479183C9.31363 0.811995 9.84609 1.3018 10.2302 1.90106C10.6142 2.50032 10.8369 3.18868 10.8765 3.89935C10.9161 4.61003 10.7713 5.31887 10.4562 5.95709C10.1411 6.59532 9.66637 7.14125 9.07808 7.54192C10.345 8.00658 11.4438 8.83975 12.2332 9.93419C13.0226 11.0286 13.4664 12.3343 13.5075 13.683C13.5097 13.757 13.4974 13.8306 13.4711 13.8998C13.4449 13.969 13.4052 14.0323 13.3545 14.0861C13.2521 14.1949 13.1107 14.2585 12.9613 14.263C12.812 14.2675 12.667 14.2125 12.5582 14.11C12.4495 14.0076 12.3859 13.8662 12.3814 13.7168C12.3367 12.254 11.7241 10.866 10.6736 9.84703C9.62298 8.82807 8.21693 8.25821 6.75338 8.25821C5.28983 8.25821 3.88379 8.82807 2.83322 9.84703C1.78264 10.866 1.1701 12.254 1.12539 13.7168C1.11787 13.8639 1.05308 14.0021 0.944879 14.1019C0.836682 14.2017 0.693692 14.2552 0.546542 14.2509C0.399391 14.2466 0.259784 14.1848 0.157629 14.0788C0.0554744 13.9728 -0.00110353 13.831 1.63121e-05 13.6838C0.0409707 12.3349 0.484705 11.0291 1.2741 9.9345C2.0635 8.83991 3.16243 8.00663 4.42944 7.54192C3.87291 7.16336 3.41748 6.65436 3.10289 6.05934C2.7883 5.46431 2.62411 4.80133 2.62464 4.12826V4.12826ZM6.75376 1.12526C5.95731 1.12526 5.19349 1.44165 4.63032 2.00482C4.06715 2.56799 3.75076 3.33182 3.75076 4.12826C3.75076 4.92471 4.06715 5.68853 4.63032 6.2517C5.19349 6.81487 5.95731 7.13126 6.75376 7.13126C7.5502 7.13126 8.31403 6.81487 8.8772 6.2517C9.44037 5.68853 9.75676 4.92471 9.75676 4.12826C9.75676 3.33182 9.44037 2.56799 8.8772 2.00482C8.31403 1.44165 7.5502 1.12526 6.75376 1.12526Z" fill="#FA9556"/>
<path d="M12.9775 4.12806C12.8664 4.12806 12.7583 4.13556 12.6517 4.15058C12.5772 4.16391 12.5009 4.16211 12.4272 4.14529C12.3534 4.12846 12.2839 4.09697 12.2226 4.05267C12.1613 4.00838 12.1096 3.95219 12.0705 3.88747C12.0314 3.82275 12.0057 3.75082 11.995 3.67596C11.9843 3.60111 11.9888 3.52487 12.0082 3.45179C12.0276 3.37871 12.0616 3.31028 12.108 3.2506C12.1544 3.19092 12.2124 3.1412 12.2785 3.10441C12.3445 3.06762 12.4173 3.04451 12.4925 3.03647C13.2392 2.92851 14.0005 3.0719 14.6568 3.44407C15.3131 3.81623 15.8269 4.39605 16.1176 5.09226C16.4082 5.78848 16.4591 6.56157 16.2622 7.28987C16.0653 8.01817 15.6319 8.66033 15.03 9.11529C15.9147 9.51141 16.6658 10.1551 17.1928 10.9686C17.7198 11.7821 18.0002 12.7308 18 13.7001C18 13.8494 17.9407 13.9927 17.8351 14.0983C17.7295 14.2039 17.5863 14.2632 17.4369 14.2632C17.2876 14.2632 17.1444 14.2039 17.0388 14.0983C16.9332 13.9927 16.8739 13.8494 16.8739 13.7001C16.8738 12.8624 16.6039 12.047 16.1041 11.3747C15.6043 10.7023 14.9013 10.2089 14.0991 9.96739L13.6982 9.84727V8.58901L14.006 8.4321C14.4623 8.20098 14.8273 7.82284 15.0423 7.35871C15.2572 6.89459 15.3094 6.37158 15.1906 5.87412C15.0717 5.37666 14.7886 4.93377 14.3871 4.61696C13.9855 4.30016 13.489 4.12792 12.9775 4.12806Z" fill="#FA9556"/>
</svg>
