<svg width="1871" height="324" viewBox="0 0 1871 324" fill="none" xmlns="http://www.w3.org/2000/svg">
<g opacity="0.7">
<g opacity="0.7">
<path opacity="0.7" d="M333.598 135.842C412.264 79.4051 630.249 -37.6173 928.491 121.462" stroke="#FA9556" stroke-width="2.058" stroke-miterlimit="10" stroke-linecap="round" stroke-dasharray="9.3 9.3"/>
<path opacity="0.7" d="M943.94 145.442C947.495 146.838 951.076 148.302 954.683 149.788" stroke="#FA9556" stroke-width="2.058" stroke-miterlimit="10" stroke-linecap="round"/>
</g>
</g>
<path opacity="0.7" d="M1108.64 206.356C1108.64 206.356 1169.29 321.039 1365.7 306.892" stroke="#FA9556" stroke-width="2.058" stroke-miterlimit="10" stroke-linecap="round" stroke-dasharray="9.26 9.26"/>
<path opacity="0.7" d="M1503.6 64.2441C1503.6 64.2441 1621.57 59.3654 1644.3 172.406" stroke="#FA9556" stroke-width="2.058" stroke-miterlimit="10" stroke-linecap="round" stroke-dasharray="9.26 9.26"/>
<path d="M199.744 186.308C199.741 199.762 199.744 213.208 199.733 226.656C199.734 228.545 199.734 230.433 199.728 232.329C199.725 232.871 200.268 233.915 200.919 233.763C202.309 233.425 203.708 233.094 205.098 232.757C206.918 232.323 209.152 232.122 210.867 231.367C211.658 231.019 211.622 230.788 211.946 229.9C212.669 227.928 213.392 225.957 214.129 223.984C214.602 222.692 214.985 220.278 215.886 219.218C216.166 218.891 215.56 219.458 215.991 219.262C216.247 219.144 216.6 219.115 216.877 219.052C217.825 218.826 218.854 218.677 219.776 218.355C221.624 217.69 221.769 215.712 220.586 214.285C219.311 212.748 217.751 213.434 216.104 213.825C216.492 214.368 216.895 214.909 217.283 215.452C217.911 213.749 218.54 212.046 219.162 210.351C219.477 209.506 219.678 208.434 220.146 207.67C220.424 207.215 220.166 207.546 220.287 207.488C220.689 207.281 221.352 207.227 221.788 207.123C223.628 206.68 225.87 206.257 225.11 203.765C224.371 201.328 222.433 201.556 220.44 202.032C220.828 202.575 221.231 203.116 221.619 203.659C224.849 194.883 228.082 186.121 231.312 177.345C232.157 175.038 233.01 172.737 233.855 170.429C234.128 169.704 234.432 167.799 235.021 167.27C235.188 167.121 237.047 166.768 237.348 166.673C238.676 166.236 240.003 165.786 241.329 165.335C244.157 164.355 246.973 163.341 249.765 162.245C254.073 160.567 258.336 158.752 262.437 156.609C265.133 155.197 267.884 153.663 270.143 151.607C271.288 150.559 272.574 149.216 272.566 147.549C272.55 143.254 266.547 142.486 263.437 142.182C254.404 141.286 245.066 142.458 236.122 143.71C234.602 143.921 233.084 144.146 231.567 144.385C231.008 144.469 230.427 144.613 229.862 144.654C226.29 144.979 229.913 145.175 229.461 145.039C229.195 144.959 228.792 144.417 228.599 144.242C227.23 142.973 225.86 141.705 224.484 140.444C216.647 133.206 208.811 125.968 200.974 118.729C201.098 119.27 201.223 119.81 201.355 120.356C202.394 120.113 203.708 120.02 204.211 118.917C204.7 117.865 204.206 116.53 203.452 115.741C201.926 114.136 199.322 115.43 197.51 115.869C197.727 115.949 197.937 116.037 198.154 116.117C196.019 114.139 193.885 112.174 191.75 110.196C191.875 110.737 191.999 111.277 192.131 111.823C193.079 111.598 194.515 111.512 195.184 110.701C196.049 109.638 195.532 108.007 194.678 107.102C193.095 105.439 190.161 106.881 188.279 107.33C188.495 107.41 188.706 107.498 188.922 107.578C187.417 106.191 185.917 104.796 184.419 103.415C183.357 102.436 182.294 101.457 181.237 100.47C180.753 100.017 180.19 99.2752 179.602 98.9567C178.387 98.303 176.257 99.3314 174.971 99.6486C172.805 100.168 170.64 100.688 168.474 101.207C168.052 101.31 168.454 102.243 168.529 102.391C171.848 108.889 175.167 115.387 178.494 121.891C182.117 128.992 186.063 136.003 189.411 143.246C189.538 143.522 189.4 143.39 189.287 142.884C189.337 143.113 189.389 143.356 189.425 143.586C189.585 144.813 189.901 146.035 190.138 147.245C190.559 149.423 190.981 151.601 191.402 153.779C191.452 153.552 191.496 153.333 191.538 153.099C180.202 156.252 168.921 159.841 158.131 164.572C158.348 164.652 158.558 164.739 158.775 164.819C152.439 157.9 146.095 150.974 139.759 144.054C139.578 143.863 139.37 143.739 139.115 143.807C136.853 144.353 134.597 144.891 132.335 145.437C132.024 145.511 132.203 146.208 132.272 146.364C135.988 155.641 139.704 164.919 143.426 174.188C143.413 173.912 143.4 173.636 143.387 173.359C140.689 176.468 142.002 179.454 145.605 180.914C145.303 180.438 145.01 179.969 144.714 179.486C145.628 189.434 146.535 199.389 147.449 209.337C147.501 209.872 147.96 210.926 148.639 210.77C150.901 210.225 153.157 209.687 155.419 209.141C155.512 209.086 155.566 209.001 155.58 208.885C157.127 203.298 158.661 197.712 160.208 192.125C161.048 189.091 161.882 186.066 162.722 183.032C163.06 181.8 162.793 181.883 163.991 181.955C166.993 182.136 170.304 181.431 173.282 181.087C181.499 180.119 189.645 178.704 197.742 177.059C197.399 176.653 197.062 176.239 196.725 175.825C197.754 179.388 198.783 182.951 199.812 186.513C200.015 187.229 201.497 188.37 201.117 187.035C200.088 183.472 199.059 179.909 198.03 176.346C197.934 176.03 197.514 175.007 197.014 175.112C185.479 177.463 173.805 179.39 162.048 180.088C161.872 180.103 161.794 180.219 161.749 180.375C160.056 186.507 158.363 192.64 156.663 198.781C155.928 201.452 155.489 204.557 154.367 207.106C154.105 207.687 154.385 207.246 154.278 207.302C153.73 207.598 152.859 207.643 152.265 207.788C150.722 208.159 149.179 208.53 147.636 208.9C148.038 209.378 148.432 209.849 148.827 210.334C147.914 200.386 147.006 190.43 146.093 180.482C146.042 179.962 145.72 179.268 145.202 179.054C144.189 178.646 143.046 177.998 143.456 176.771C143.68 176.109 144.198 175.574 144.639 175.056C144.806 174.857 144.674 174.424 144.6 174.227C140.884 164.95 137.168 155.672 133.454 146.409C133.428 146.718 133.417 147.026 133.391 147.336C135.653 146.79 137.909 146.252 140.171 145.706C139.955 145.626 139.744 145.538 139.528 145.458C145.864 152.378 152.208 159.304 158.544 166.223C158.693 166.39 158.952 166.579 159.188 166.471C169.977 161.74 181.251 158.145 192.595 154.998C192.836 154.933 192.764 154.471 192.731 154.319C192.036 150.75 191.701 146.865 190.612 143.395C189.95 141.283 188.548 139.242 187.555 137.278C182.841 128.061 178.135 118.836 173.422 109.619C172.103 107.047 170.792 104.481 169.48 101.901C169.501 102.298 169.522 102.694 169.535 103.085C173.028 102.243 176.516 101.408 180.009 100.566C179.793 100.486 179.582 100.399 179.366 100.319C182.225 102.962 185.085 105.605 187.944 108.248C189.04 109.266 189.303 109.205 190.812 108.845C191.65 108.648 193.347 107.802 193.589 108.713C193.831 109.623 191.906 109.735 191.139 109.923C190.558 110.067 191.327 111.375 191.52 111.55C193.557 113.427 195.512 115.67 197.747 117.308C198.61 117.941 199.17 117.579 200.223 117.334C200.506 117.263 203.443 116.241 202.498 117.862C202.275 118.246 200.716 118.377 200.371 118.463C199.79 118.606 200.559 119.914 200.752 120.09C207.323 126.153 213.881 132.219 220.452 138.282C223.288 140.907 226.024 143.822 229.054 146.23C229.275 146.402 229.433 146.639 229.714 146.718C230.701 146.98 232.588 146.281 233.617 146.131C235.113 145.902 236.619 145.693 238.125 145.483C243.178 144.803 248.248 144.263 253.333 144.013C256.953 143.839 260.607 143.768 264.221 144.123C265.952 144.291 269.762 144.443 270.977 146.009C273.043 148.694 263.472 153.651 261.935 154.47C253.255 159.094 243.939 161.981 234.736 165.324C233.488 165.772 233.507 166.497 233.053 167.715C232.372 169.567 231.697 171.411 231.008 173.257C227.442 182.938 223.882 192.61 220.321 202.282C220.113 202.843 220.864 204.06 221.501 203.909C221.812 203.835 222.209 203.65 222.525 203.668C222.698 203.625 222.864 203.59 223.029 203.54C223.615 204.237 223.572 204.634 222.872 204.736C222.52 204.994 221.655 205.03 221.219 205.135C220.084 205.404 219.369 205.33 218.832 206.28C217.525 208.595 216.884 211.569 215.963 214.071C215.755 214.631 216.506 215.849 217.143 215.698C217.488 215.612 218.902 215.065 219.156 215.211C220.71 216.079 218.603 216.492 218.237 216.587C217.264 216.844 215.269 216.901 214.631 217.672C214.142 218.267 213.935 219.575 213.675 220.285C213.008 222.085 212.349 223.878 211.69 225.685C211.297 226.76 211.009 228.449 210.327 229.375C210.066 229.742 210.656 229.213 210.063 229.436C209.518 229.633 208.908 229.716 208.348 229.85C205.539 230.528 202.737 231.198 199.929 231.877C200.33 232.354 200.724 232.825 201.119 233.31C201.122 219.856 201.119 206.41 201.122 192.956C201.121 191.067 201.121 189.179 201.127 187.283C201.11 186.637 199.739 185.126 199.744 186.308Z" fill="#FA9556"/>
<path d="M260.473 153.091C260.237 152.109 259.998 151.113 259.762 150.13C259.586 149.411 259.419 148.698 259.244 147.979C259.141 147.557 258.987 147.12 258.934 146.699C258.906 146.475 258.982 146.28 259.131 146.105C259.274 145.937 259.507 145.801 259.723 145.767C259.709 145.769 259.901 145.766 259.951 145.767C260.037 145.771 260.198 145.857 260.268 145.849C260.226 145.854 260.087 145.315 260.159 145.663C260.198 145.857 260.25 146.05 260.295 146.237C260.632 147.627 260.97 149.018 261.301 150.416C261.42 150.914 261.597 151.419 261.666 151.916C261.698 152.169 261.599 152.409 261.408 152.59C261.211 152.779 260.937 152.87 260.715 152.862C260.601 152.862 260.464 152.793 260.357 152.785C260.235 152.779 260.362 152.713 260.473 153.091C260.347 152.651 260.08 152.05 259.604 151.896C259.165 151.744 259.07 152.24 259.162 152.578C259.409 153.417 259.884 154.255 260.708 154.63C261.238 154.877 261.898 154.859 262.373 154.493C263.121 153.923 263.109 153.026 262.913 152.203C262.541 150.646 262.169 149.089 261.796 147.532C261.679 147.048 261.574 146.548 261.442 146.066C261.121 144.866 260.05 143.474 258.65 143.906C256.838 144.46 257.795 146.877 258.095 148.136C258.451 149.617 258.806 151.098 259.162 152.578C259.266 153.014 259.564 153.625 260.031 153.774C260.484 153.924 260.557 153.423 260.473 153.091Z" fill="#FA9556"/>
<path d="M197.856 177.059C208.645 174.266 219.434 171.474 230.23 168.673C231.783 168.272 233.336 167.872 234.89 167.471C235.525 167.307 234.651 165.385 233.871 165.589C223.082 168.382 212.292 171.175 201.497 173.975C199.944 174.376 198.39 174.776 196.837 175.177C196.194 175.335 197.068 177.257 197.856 177.059Z" fill="#FA9556"/>
<path d="M229.01 144.789C218.131 147.209 207.246 149.636 196.368 152.055C194.801 152.407 193.241 152.751 191.666 153.098C190.849 153.285 191.749 155.189 192.408 155.043C203.287 152.624 214.171 150.197 225.05 147.778C226.617 147.425 228.177 147.081 229.751 146.735C230.577 146.554 229.668 144.643 229.01 144.789Z" fill="#FA9556"/>
<path d="M1838.85 160.349C1846.03 169.581 1853.21 178.805 1860.38 188.037C1861.39 189.332 1862.4 190.627 1863.41 191.931C1863.69 192.305 1864.62 192.731 1864.99 192.279C1865.76 191.305 1866.55 190.331 1867.32 189.358C1868.34 188.089 1869.76 186.759 1870.54 185.324C1870.89 184.664 1870.74 184.525 1870.49 183.742C1869.94 182.004 1869.38 180.265 1868.83 178.518C1868.47 177.379 1867.44 175.519 1867.49 174.31C1867.51 173.937 1867.4 174.649 1867.59 174.284C1867.7 174.067 1867.93 173.858 1868.08 173.667C1868.61 173.006 1869.24 172.354 1869.7 171.642C1870.61 170.199 1869.66 168.764 1868.08 168.417C1866.39 168.043 1865.69 169.347 1864.76 170.494C1865.32 170.659 1865.89 170.816 1866.44 170.981C1865.96 169.477 1865.49 167.973 1865.01 166.478C1864.77 165.73 1864.34 164.887 1864.25 164.114C1864.2 163.653 1864.2 164.018 1864.25 163.914C1864.42 163.557 1864.84 163.166 1865.09 162.862C1866.11 161.575 1867.42 160.089 1865.57 158.785C1863.76 157.507 1862.56 158.698 1861.44 160.089C1862 160.254 1862.56 160.41 1863.12 160.575C1860.65 152.83 1858.19 145.093 1855.72 137.348C1855.07 135.314 1854.43 133.28 1853.78 131.246C1853.58 130.602 1852.77 129.133 1852.89 128.455C1852.92 128.264 1854.01 127.029 1854.17 126.803C1854.85 125.795 1855.51 124.778 1856.18 123.761C1857.6 121.579 1858.99 119.38 1860.32 117.137C1862.38 113.686 1864.34 110.165 1866.01 106.505C1867.1 104.097 1868.17 101.576 1868.62 98.9599C1868.85 97.6299 1869.01 96.0217 1868.12 94.8829C1865.82 91.9447 1861.29 94.6221 1858.99 96.0739C1852.32 100.281 1846.53 106.071 1841.07 111.704C1840.14 112.66 1839.22 113.625 1838.3 114.599C1837.96 114.955 1837.64 115.363 1837.28 115.694C1835 117.824 1837.59 116.024 1837.21 116.172C1836.98 116.259 1836.42 116.102 1836.19 116.085C1834.57 115.946 1832.96 115.807 1831.34 115.676C1822.1 114.894 1812.86 114.112 1803.62 113.329C1803.99 113.634 1804.37 113.938 1804.75 114.242C1805.33 113.521 1806.18 112.756 1805.94 111.73C1805.71 110.748 1804.66 110.096 1803.72 109.956C1801.82 109.67 1800.72 111.947 1799.71 113.216C1799.91 113.155 1800.1 113.103 1800.29 113.042C1797.77 112.825 1795.26 112.617 1792.73 112.399C1793.11 112.703 1793.48 113.008 1793.86 113.312C1794.39 112.651 1795.33 111.825 1795.36 110.913C1795.39 109.722 1794.16 108.879 1793.09 108.713C1791.12 108.418 1789.87 110.974 1788.82 112.286C1789.01 112.225 1789.2 112.173 1789.4 112.112C1787.62 111.965 1785.85 111.808 1784.08 111.66C1782.83 111.556 1781.58 111.452 1780.33 111.339C1779.76 111.287 1778.97 111.078 1778.4 111.173C1777.22 111.373 1776.3 113.216 1775.59 114.12C1774.38 115.633 1773.18 117.146 1771.97 118.658C1771.73 118.954 1772.51 119.38 1772.64 119.44C1778.38 122.127 1784.13 124.813 1789.88 127.499C1796.16 130.437 1802.61 133.141 1808.77 136.322C1809.01 136.444 1808.84 136.427 1808.49 136.14C1808.65 136.27 1808.82 136.409 1808.96 136.548C1809.73 137.304 1810.6 137.974 1811.41 138.678C1812.86 139.947 1814.31 141.216 1815.76 142.485C1815.67 142.303 1815.59 142.129 1815.49 141.947C1809.4 150.161 1803.57 158.646 1798.7 167.652C1798.89 167.591 1799.08 167.539 1799.27 167.478C1791.23 166.113 1783.18 164.748 1775.14 163.383C1774.91 163.349 1774.71 163.375 1774.57 163.557C1773.31 165.139 1772.05 166.713 1770.78 168.295C1770.61 168.512 1771.11 168.895 1771.24 168.964C1778.74 173.345 1786.24 177.727 1793.74 182.099C1793.59 181.917 1793.43 181.734 1793.27 181.552C1793.08 185.124 1795.58 186.472 1798.83 185.55C1798.37 185.385 1797.92 185.22 1797.45 185.046C1803.39 191.383 1809.33 197.729 1815.27 204.066C1815.59 204.405 1816.47 204.883 1816.85 204.414C1818.11 202.832 1819.37 201.258 1820.63 199.676C1820.66 199.589 1820.66 199.502 1820.6 199.416C1818.68 194.756 1816.75 190.105 1814.83 185.446C1813.79 182.916 1812.75 180.395 1811.7 177.866C1811.28 176.84 1811.14 177.04 1812 176.449C1814.15 174.971 1816.05 172.72 1817.91 170.894C1823.03 165.843 1827.86 160.523 1832.54 155.073C1832.09 154.977 1831.64 154.873 1831.18 154.769C1833.79 156.664 1836.4 158.559 1839.01 160.454C1839.53 160.836 1841.15 160.828 1840.18 160.115C1837.57 158.22 1834.96 156.325 1832.36 154.43C1832.12 154.264 1831.29 153.786 1831 154.125C1824.34 161.897 1817.36 169.451 1809.67 176.205C1809.56 176.31 1809.56 176.431 1809.62 176.562C1811.73 181.673 1813.84 186.785 1815.95 191.905C1816.87 194.13 1818.23 196.495 1818.82 198.842C1818.95 199.381 1818.91 198.929 1818.87 199.024C1818.65 199.52 1818.07 200.015 1817.74 200.433C1816.88 201.511 1816.02 202.588 1815.16 203.666C1815.69 203.779 1816.21 203.892 1816.74 204.014C1810.81 197.677 1804.87 191.331 1798.93 184.994C1798.62 184.664 1798.03 184.359 1797.56 184.49C1796.65 184.751 1795.52 184.916 1795.14 183.855C1794.94 183.281 1795.01 182.638 1795.04 182.047C1795.05 181.821 1794.72 181.595 1794.57 181.499C1787.07 177.118 1779.56 172.737 1772.07 168.364C1772.22 168.59 1772.38 168.808 1772.52 169.034C1773.78 167.452 1775.04 165.878 1776.3 164.296C1776.11 164.357 1775.92 164.409 1775.73 164.47C1783.77 165.835 1791.82 167.2 1799.86 168.564C1800.05 168.599 1800.33 168.59 1800.44 168.39C1805.31 159.385 1811.13 150.9 1817.23 142.685C1817.36 142.512 1817.07 142.233 1816.96 142.146C1814.58 140.069 1812.28 137.583 1809.68 135.783C1808.09 134.688 1806.04 134.036 1804.31 133.219C1796.16 129.411 1788.01 125.595 1779.85 121.788C1777.57 120.727 1775.3 119.667 1773.03 118.597C1773.25 118.858 1773.48 119.119 1773.7 119.38C1775.64 116.937 1777.59 114.503 1779.54 112.06C1779.35 112.121 1779.16 112.173 1778.96 112.234C1782.34 112.521 1785.71 112.808 1789.08 113.095C1790.38 113.208 1790.53 113.025 1791.37 111.973C1791.84 111.391 1792.55 109.904 1793.2 110.4C1793.86 110.895 1792.6 111.999 1792.17 112.538C1791.85 112.947 1793.07 113.434 1793.3 113.451C1795.7 113.651 1798.24 114.146 1800.64 114.077C1801.58 114.051 1801.77 113.503 1802.36 112.773C1802.51 112.573 1803.98 110.304 1804.2 111.921C1804.25 112.304 1803.25 113.225 1803.06 113.468C1802.74 113.877 1803.97 114.364 1804.19 114.381C1811.94 115.033 1819.67 115.694 1827.42 116.346C1830.77 116.633 1834.2 117.172 1837.56 117.206C1837.81 117.206 1838.04 117.285 1838.28 117.189C1839.09 116.841 1840.02 115.355 1840.64 114.703C1841.55 113.747 1842.47 112.799 1843.39 111.852C1846.49 108.687 1849.68 105.61 1853.04 102.724C1855.43 100.672 1857.9 98.673 1860.57 96.9866C1861.84 96.1782 1864.54 94.2483 1866.21 94.6743C1869.06 95.4132 1865.14 103.924 1864.52 105.306C1861.03 113.112 1856.18 120.066 1851.66 127.273C1851.04 128.246 1851.44 128.733 1851.78 129.811C1852.3 131.445 1852.82 133.071 1853.33 134.705C1856.05 143.25 1858.77 151.787 1861.5 160.323C1861.65 160.819 1862.82 161.254 1863.17 160.81C1863.35 160.593 1863.52 160.254 1863.75 160.097C1863.84 159.976 1863.94 159.863 1864.03 159.741C1864.8 159.906 1864.98 160.202 1864.56 160.645C1864.45 161.01 1863.88 161.497 1863.63 161.801C1863 162.592 1862.47 162.923 1862.61 163.861C1862.95 166.148 1864.09 168.53 1864.8 170.738C1864.96 171.233 1866.12 171.668 1866.48 171.224C1866.67 170.981 1867.35 169.851 1867.6 169.816C1869.13 169.581 1867.9 170.99 1867.7 171.25C1867.17 171.946 1865.83 173.05 1865.81 173.919C1865.79 174.589 1866.35 175.597 1866.55 176.223C1867.05 177.814 1867.55 179.396 1868.07 180.987C1868.37 181.934 1869.08 183.247 1869.1 184.246C1869.12 184.638 1869.24 183.96 1868.95 184.429C1868.68 184.855 1868.31 185.237 1868 185.629C1866.43 187.593 1864.87 189.549 1863.3 191.514C1863.83 191.627 1864.36 191.74 1864.89 191.861C1857.71 182.629 1850.52 173.406 1843.34 164.174C1842.34 162.879 1841.33 161.584 1840.32 160.28C1839.96 159.845 1838.22 159.541 1838.85 160.349Z" fill="#FA9556"/>
<path d="M1862.78 105.141C1862.1 104.593 1861.4 104.037 1860.71 103.489C1860.21 103.089 1859.71 102.689 1859.21 102.289C1858.91 102.055 1858.57 101.837 1858.31 101.577C1858.17 101.437 1858.12 101.264 1858.13 101.064C1858.14 100.872 1858.23 100.655 1858.36 100.516C1858.35 100.525 1858.48 100.42 1858.51 100.394C1858.57 100.351 1858.73 100.325 1858.77 100.281C1858.75 100.307 1858.37 100.012 1858.6 100.212C1858.73 100.325 1858.87 100.429 1859 100.533C1859.97 101.307 1860.95 102.081 1861.92 102.863C1862.27 103.141 1862.66 103.393 1862.97 103.698C1863.13 103.854 1863.19 104.071 1863.16 104.297C1863.12 104.532 1862.98 104.741 1862.83 104.854C1862.75 104.915 1862.62 104.941 1862.54 104.993C1862.45 105.054 1862.5 104.941 1862.78 105.141C1862.46 104.906 1861.96 104.636 1861.55 104.784C1861.17 104.915 1861.37 105.306 1861.61 105.488C1862.23 105.932 1863 106.253 1863.76 106.071C1864.26 105.958 1864.7 105.593 1864.83 105.088C1865.04 104.297 1864.56 103.689 1863.98 103.228C1862.9 102.359 1861.81 101.49 1860.72 100.62C1860.38 100.351 1860.04 100.064 1859.7 99.8032C1858.84 99.1512 1857.36 98.7687 1856.63 99.8119C1855.68 101.159 1857.63 102.307 1858.51 103.011C1859.54 103.837 1860.57 104.663 1861.61 105.488C1861.91 105.732 1862.44 105.993 1862.84 105.845C1863.23 105.706 1863.02 105.323 1862.78 105.141Z" fill="#FA9556"/>
<path d="M1832.62 155.012C1838.53 147.336 1844.44 139.66 1850.35 131.976C1851.2 130.872 1852.05 129.768 1852.91 128.664C1853.25 128.212 1851.63 127.36 1851.2 127.916C1845.29 135.592 1839.38 143.268 1833.47 150.952C1832.62 152.056 1831.77 153.16 1830.91 154.264C1830.56 154.717 1832.18 155.568 1832.62 155.012Z" fill="#FA9556"/>
<path d="M1836.76 116.242C1830.59 123.709 1824.42 131.185 1818.25 138.652C1817.36 139.73 1816.47 140.799 1815.58 141.877C1815.12 142.442 1816.75 143.268 1817.13 142.816C1823.3 135.349 1829.47 127.873 1835.64 120.405C1836.53 119.328 1837.42 118.258 1838.31 117.18C1838.78 116.615 1837.14 115.789 1836.76 116.242Z" fill="#FA9556"/>
<path d="M132.25 181.341C132.25 181.341 118.14 173.551 115.18 211.151C112.21 248.751 133.16 279.391 155.94 266.801C178.71 254.211 130.9 224.981 115.18 264.191C99.46 303.401 66.67 319.031 2 301.651" stroke="#FA9556" stroke-width="2.223" stroke-miterlimit="10" stroke-linecap="round" stroke-linejoin="round" stroke-dasharray="6.67 6.67"/>
<path d="M1794.25 195.231C1794.25 195.231 1780.14 187.441 1777.18 225.041C1774.21 262.641 1795.16 293.281 1817.94 280.691C1840.71 268.101 1792.9 238.871 1777.18 278.081C1761.46 317.291 1728.67 332.921 1664 315.541" stroke="#FA9556" stroke-width="2.223" stroke-miterlimit="10" stroke-linecap="round" stroke-linejoin="round" stroke-dasharray="6.67 6.67"/>
<path d="M563.11 216.963C563.11 216.963 601.37 253.403 630.51 250.663C659.66 247.933 658.5 225.903 641.77 223.713C625.04 221.523 620.12 248.843 653.55 262.053C686.98 275.263 720.62 247.023 721.11 209.673" stroke="#FFA200" stroke-width="2.223" stroke-miterlimit="10" stroke-linecap="round" stroke-linejoin="round" stroke-dasharray="6.67 6.67"/>
</svg>
