<svg width="1677" height="709" viewBox="0 0 1677 709" fill="none" xmlns="http://www.w3.org/2000/svg">
<g opacity="0.9">
<path opacity="0.8" d="M453.1 47.6141C453.1 47.6141 461.404 52.0575 470.028 44.8514C478.651 37.6453 488.521 28.8967 507.094 29.5183C550.237 30.9688 563.344 25.5585 557.799 21.8748C552.253 18.1682 497.728 16.7638 497.728 16.7638C497.728 16.7638 513.462 6.17341 487.937 3.8251C445.83 -0.042697 445.83 -0.0426994 442.778 1.61493C439.754 3.27256 439.913 15.6587 436.384 15.6587C432.855 15.6587 431.263 25.075 435.11 32.3731C438.931 39.6713 439.037 40.408 434.261 39.0267C429.485 37.6453 429.167 34.0308 430.122 29.3342C431.077 24.6145 424.683 24.8908 422.454 28.2291C420.225 31.5443 392.525 26.1801 397.221 32.3731C401.918 38.5662 400.22 43.378 394.25 44.8514C388.28 46.3249 362.304 60.0003 380.612 61.4737C398.919 62.9472 422.348 47.9134 419.801 64.3055C417.254 80.6976 397.434 70.5216 398.919 62.9472C400.405 55.3727 388.28 65.1574 380.187 69.2324C372.095 73.2843 353.15 78.6486 356.334 69.2324C359.518 59.7931 359.518 53.1626 369.123 48.7192C378.701 44.2758 389.58 35.9647 381.912 31.5443C374.244 27.101 366.576 33.7545 364.029 38.1979C361.481 42.6412 349.966 38.1979 349.966 34.8826C349.966 31.5674 321.205 37.0928 321.205 41.5361C321.205 45.9795 314.173 44.2989 309.052 45.1277C303.958 45.9565 268.59 66.4696 288.622 64.9041C308.654 63.3386 304.277 70.0842 300.456 71.6497C296.608 73.2153 273.472 71.7418 273.153 67.2985C272.835 62.8551 263.097 66.838 249.672 70.3374C236.246 73.8369 178.59 66.5848 166.385 61.4737C97.6116 32.6494 48.34 60.9903 54.7344 77.6126C57.2816 84.2201 70.946 122.438 64.1801 129.644C53.9119 140.579 18.5966 134.939 4.82597 139.613C-18.0189 147.371 46.5092 142.375 67.6029 136.297C80.3652 132.614 76.5445 157.915 109.764 137.402C124.145 128.516 148.953 115.554 155.772 133.512C173.018 178.958 139.162 195.603 132.768 208.911C126.373 222.218 130.645 231.818 139.587 246.622C148.528 261.402 143.832 264.717 145.981 275.078C148.104 285.415 160.468 303.534 166.013 304.27C171.559 305.007 166.438 296.512 160.893 283.941C155.347 271.371 151.951 254.749 157.496 257.696C163.042 260.642 164.74 269.897 174.955 289.098C185.17 308.322 188.381 300.932 189.017 315.897C189.654 330.861 218.841 340.853 229.905 340.853C240.995 340.853 240.783 335.305 245.559 340.853C250.362 346.402 255.138 351.95 262.169 351.95C269.2 351.95 276.231 357.499 281.326 369.125C286.446 380.774 299.846 386.047 307.195 384.09C314.545 382.156 338.504 386.691 324.017 405.155C324.017 405.155 291.647 432.875 306.134 455.045C320.621 477.216 344.262 506.616 357.661 516.032C371.06 525.449 375.544 547.067 373.846 587.725C372.148 628.383 378.091 636.878 380.24 640.216C382.363 643.555 389.819 640.032 389.819 645.212C389.819 650.392 382.575 647.699 382.894 653.523C383.212 659.348 398.123 717.089 448.801 707.488C448.801 707.488 449.65 704.541 437.525 699.73C425.399 694.918 421.552 685.502 427.522 683.476C433.492 681.45 435.827 668.511 427.097 664.989C418.368 661.466 429.22 651.866 430.175 645.765C431.13 639.664 425.054 640.216 426.354 636.348C427.628 632.458 452.436 620.279 456.071 617.861C459.68 615.467 452.436 608.629 449.677 602.712C446.917 596.796 449.677 599.558 459.468 603.081C469.258 606.603 481.623 582.936 487.141 572.967C492.687 562.975 479.898 556.322 492.262 550.405C504.627 544.488 527.206 538.963 528.029 515.296C528.878 491.628 533.574 482.396 540.818 479.081C548.061 475.766 558.595 457.555 548.379 452.283C538.164 447.011 530.496 437.042 529.223 436.627C527.949 436.213 503.671 437.871 501.92 433.726C500.169 429.559 497.171 424.955 485.682 425.116C474.193 425.3 465.013 411.441 464.376 407.02C463.739 402.577 456.708 392.792 442.221 390.375C427.734 387.981 418.58 374.858 408.79 369.862C398.999 364.866 369.494 364.405 367.584 360.538C365.674 356.647 349.621 354.114 334.046 369.401C318.472 384.711 324.15 373.845 321.921 372.44C319.692 371.059 315.633 367.905 306.373 374.374C297.113 380.844 290.93 363.277 294.937 357.591C298.917 351.904 300.217 335.834 286.155 338.044C272.092 340.255 271.641 335.65 276.231 330.102C280.821 324.553 296.37 306.596 282.626 308.115C268.882 309.635 261.532 319.626 253.386 325.566C245.241 331.529 226.243 308.529 230.064 303.534C233.885 298.538 252.59 260.159 262.169 267.918C271.747 275.676 280.37 271.233 281.326 267.918C282.281 264.602 310.406 259.054 309.742 270.404C309.105 281.777 321.231 299.228 325.397 283.435C329.536 267.641 317.623 262.83 329.96 254.703C342.325 246.576 357.236 238.449 361.482 227.352C365.753 216.255 385.759 207.759 392.154 206.286C398.548 204.813 398.548 199.632 406.641 194.084C414.733 188.536 410.488 194.452 428.796 194.452C447.103 194.452 466.923 171.729 456.682 176.702C446.466 181.698 437.047 181.283 440.072 176.149C443.123 171.015 438.798 165.49 434.792 166.871C430.785 168.253 417.917 174.584 420.995 169.588C424.073 164.592 435.588 159.803 450.765 161.047C465.942 162.29 470.266 161.599 474.246 158.56C478.253 155.521 479.049 158.146 476.634 160.77C474.246 163.418 457.955 170.877 462.413 173.663C466.897 176.426 468.807 172.972 476.157 175.459C483.506 177.945 478.916 180.593 488.495 180.409C498.073 180.224 499.559 174.952 497.436 169.68C495.314 164.408 487.858 163.763 488.388 160.632C488.919 157.478 492.581 155.222 493.085 149.673C493.562 144.125 490.856 137.748 486.213 137.333C481.569 136.919 474.538 131.37 477.908 126.098C481.251 120.826 477.537 105.171 470.93 112.008C464.323 118.846 451.242 120.826 452.012 115.577C452.808 110.305 441.744 94.8335 423.197 103.329C404.677 111.824 407.649 119.307 408.073 120.527C408.498 121.724 414.149 127.503 409.028 130.127C403.908 132.752 386.024 135.952 385.228 141.915C384.432 147.878 390.588 151.561 383.398 153.426C376.207 155.291 371.67 153.012 375.013 147.601C378.356 142.191 383.398 139.428 380.612 137.356C377.826 135.284 364.904 135.837 365.17 133.742C365.435 131.67 348.825 130.265 348.188 125.016C347.552 119.744 340.043 115.738 367.186 103.812C394.356 91.8866 394.037 92.9917 396.266 97.4351C398.495 101.878 406.163 99.0927 406.8 96.33C407.437 93.5673 405.526 97.4351 410.62 98.8164C415.741 100.198 422.428 95.7774 419.562 91.8866C416.697 87.9958 421.472 82.2862 427.442 80.7897C433.412 79.3163 439.356 64.7199 447.024 67.7589C454.692 70.7979 445.113 73.3074 443.521 78.004C441.929 82.7236 451.083 85.0259 448.111 86.3151C445.14 87.6044 424.258 91.1269 431.077 94.4421C437.896 97.7574 442.142 92.6003 448.111 96.8595C454.081 101.096 458.114 106.092 468.356 105.355C478.571 104.618 478.571 102.592 484.541 96.4911C490.511 90.3902 494.756 89.1009 500.302 87.8116C505.847 86.5224 506.484 76.0701 497.861 73.5836C489.238 71.0742 476.608 53.3468 467.666 53.3468C458.698 53.4388 446.705 51.7812 453.1 47.6141Z" fill="white"/>
<path opacity="0.8" d="M1674.09 108.792C1666.82 102.194 1631.26 94.5256 1616.15 94.5256C1601.04 94.5256 1577.23 83.4943 1568 82.8828C1558.8 82.2714 1561.5 95.7739 1558.09 95.4682C1554.68 95.1625 1548.33 93.0989 1548.07 90.6277C1547.8 88.1819 1515.15 93.5065 1509.5 84.3095C1503.83 75.1125 1469.61 81.8638 1463.24 81.4561C1456.86 81.0485 1475.73 43.4197 1452.15 45.6616C1444.72 46.3749 1467.03 86.2457 1405.09 77.4563C1402.39 77.0742 1405.18 80.3352 1400.21 80.8702C1395.25 81.4052 1382.19 79.4944 1382.19 82.9593C1382.19 86.4495 1384.19 86.0164 1378.87 85.9145C1373.58 85.8126 1368.97 84.2331 1362.94 76.8704C1356.91 69.5076 1352.33 70.3738 1328.25 71.8005C1304.18 73.2272 1274.11 67.3931 1270.9 59.1132C1269.32 55.037 1278.67 41.6873 1271.82 26.5797C1264.82 11.0645 1254.59 -12.2466 1231.96 9.23015C1228.69 12.3383 1257.41 20.6182 1252.83 33.7641C1247.71 48.4385 1227.22 51.776 1223.11 55.521C1215.32 62.6035 1200.33 59.5463 1196.33 61.1768C1192.33 62.8073 1177.93 60.7692 1175.11 68.9472C1172.29 77.1251 1161.91 70.5776 1161.91 73.3546C1161.91 76.1061 1161.38 73.6603 1154.82 76.7175C1148.27 79.7747 1134.31 79.1632 1129.69 74.2717C1125.08 69.3548 1108.82 73.3546 1114.47 86.5514C1120.14 99.7483 1104.74 99.0349 1095.59 92.2837C1062.47 67.7498 1128.34 42.6299 1094.45 38.7065C1066.11 35.42 1076.25 96.2325 1071.64 94.3727C1067.05 92.5384 1054.06 91.0608 1043.45 98.6273C1032.84 106.194 1034.31 96.9968 1034.48 95.5956C1034.66 94.2199 1019.61 91.6467 1017.73 98.8311C1015.85 105.99 1007.82 119.9 999.09 117.225C990.36 114.576 969.607 107.621 980.689 107.213C991.771 106.805 1008.53 113.76 1009.23 102.704C1009.94 91.6722 986.715 90.3729 974.84 90.3729C962.993 90.3729 959.966 82.3988 957.673 81.023C955.38 79.6473 951.471 84.0802 942.623 84.2331C933.775 84.3859 906.349 82.8573 899.618 96.0542C892.887 109.251 889.006 118.754 879.776 118.754C870.576 118.754 842.621 119.365 852.527 146.065C852.527 146.065 859.847 154.65 870.458 148.103C881.07 141.555 888.272 151.109 887.39 157.402C886.508 163.694 888.272 163.694 894.298 163.236C900.323 162.777 914.58 151.975 918.842 146.065C923.075 140.129 922.134 137.887 915.785 136.052C909.407 134.218 906.82 130.524 910.847 127.467C914.845 124.41 927.602 120.512 928.543 111.111C929.483 101.71 948.12 105.175 946.473 110.499C944.827 115.824 929.954 117.047 927.837 123.391C925.721 129.734 933.452 140.256 936.097 140.409C938.743 140.562 962.758 129.505 962.288 136.868C961.788 144.23 958.378 145.147 948.472 145.147C938.566 145.147 926.896 153.733 928.307 165.707C929.718 177.656 917.343 168.153 915.726 166.318C914.139 164.484 912.905 164.331 906.702 168.153C900.5 172 887.713 174.904 886.302 165.707C884.891 156.51 880.159 151.593 872.134 154.676C864.109 157.733 860.582 160.408 866.696 165.936C872.839 171.465 867.93 174.471 865.814 174.93C863.697 175.388 846.884 170.216 846.884 177.987C846.884 185.757 836.272 184.738 836.742 180.229C837.213 175.719 829.423 174.904 826.601 167.541C823.779 160.179 819.752 158.956 822.368 151.797C824.955 144.638 815.519 135.849 814.343 142.192C813.168 148.536 810.081 139.95 804.202 145.046C798.294 150.166 796.471 153.58 797 163.083C797.53 172.586 784.39 160.077 780.833 164.459C777.306 168.866 770.457 194.827 782.479 188.993C794.502 183.158 801.586 176.407 800.528 170.293C799.47 164.153 806.906 163.236 806.524 170.293C806.172 177.35 790.945 195.336 804.643 205.17C818.341 214.979 822.809 228.889 807.965 229.5C793.091 230.112 773.749 234.01 773.749 240.939C773.749 247.894 768.781 248.098 768.781 248.098C768.781 248.098 758.875 263.639 768.781 266.9C778.687 270.186 792.385 271.409 785.301 278.772C778.217 286.135 765.048 291.765 764.372 306.796C763.696 321.827 749.175 320.604 737.152 330.413C725.13 340.221 718.751 350.769 724.424 367.532C730.098 384.296 722.073 381.85 718.281 391.251C714.518 400.652 749.439 454.229 770.192 454.636C790.945 455.044 799.44 453.006 803.232 454.636C806.995 456.267 810.316 452.191 825.866 447.681C841.446 443.172 842.974 443.885 846.501 449.719C850.029 455.554 854.997 456.165 862.081 458.636C869.165 461.082 877.778 473.056 871.164 479.603C864.55 486.151 882.951 499.45 893.592 523.372C904.204 547.295 890.535 562.631 885.802 569.179C881.099 575.701 889.918 587.165 897.531 599.853C905.144 612.54 902.822 626.45 904.233 633.813C905.644 641.176 918.372 646.704 921.223 665.098C924.045 683.492 941.741 685.352 965.11 679.824C988.449 674.321 1003.32 652.232 1006.15 641.787C1008.97 631.367 1004.03 628.284 1015.35 625.839C1026.66 623.367 1020.99 609.89 1021.72 601.305C1022.43 592.719 1011.82 593.331 1038.01 583.497C1064.2 573.688 1055.7 538.098 1049.33 527.678C1042.95 517.258 1048.97 493.335 1082.25 472.47C1115.52 451.605 1126.84 412.957 1113.41 412.345C1099.94 411.734 1076.72 422.765 1074.11 415.403C1071.52 408.04 1038.95 389.646 1038.95 378.589C1038.95 367.558 1024.31 341.164 1018.67 337.903C1012.99 334.642 1005.47 316.019 1016.55 319.483C1027.63 322.948 1057.12 367.532 1060.32 377.06C1063.49 386.563 1064.2 409.568 1077.66 407.428C1091.13 405.288 1142.07 389.646 1161.44 354.055C1161.44 354.055 1143.27 335.432 1136.42 332.375C1129.57 329.317 1129.22 340.043 1124.96 341.979C1120.73 343.915 1076.02 313.344 1101.27 306.083C1101.27 306.083 1121.78 330.311 1132.87 328.069C1143.95 325.827 1147.27 327.458 1161.41 334.616C1175.58 341.775 1189.95 335.228 1197.51 337.266C1205.06 339.304 1222.76 359.966 1226.05 361.596C1229.34 363.227 1236.19 351.788 1238.78 359.966C1241.36 368.144 1251.39 428.88 1269.79 434.714C1269.79 434.714 1275.34 427.453 1278.64 434.612C1281.93 441.771 1288.78 450.968 1296.1 444.446C1303.42 437.898 1296.8 423.784 1291.13 422.765C1285.46 421.746 1283.22 392.091 1287.48 388.729C1291.75 385.366 1316.61 369.621 1321.35 359.38C1326.08 349.164 1324.43 355.915 1331.49 357.138C1338.57 358.361 1346.6 351.609 1346.6 351.609L1363.59 372.169V391.48C1363.59 391.48 1370.67 395.454 1374.9 393.009C1379.14 390.563 1389.78 383.914 1390.72 399.454C1391.66 414.995 1386.96 429.211 1396.16 437.796C1405.36 446.382 1405.83 446.688 1405.83 451.401C1405.83 456.089 1407 467.349 1431.55 476.546C1431.55 476.546 1430.61 457.108 1426.82 452.42C1423.05 447.732 1409.12 440.981 1406.3 433.211C1403.48 425.44 1396.86 408.524 1399.33 403.76C1401.8 398.996 1410.68 403.148 1410.68 403.148C1410.68 403.148 1432.61 418.944 1431.55 425.542C1430.46 432.141 1456.33 421.568 1460.33 408.473C1464.32 395.378 1420.91 374.334 1429.9 367.379C1438.87 360.424 1455.09 353.622 1451.01 362.819C1446.95 372.016 1440.13 374.869 1451.1 378.614C1462.06 382.385 1464 370.436 1461.15 365.723C1458.33 361.01 1457.92 356.832 1466.94 356.221C1475.96 355.609 1512.94 343.864 1508.71 312.35C1504.48 280.861 1471.91 287.816 1483.22 276.759C1494.54 265.728 1501.63 259.996 1491.72 260.403C1481.81 260.811 1464.35 267.562 1467.41 255.486C1470.47 243.41 1477.55 242.391 1480.73 243.92C1483.9 245.449 1478.49 260.785 1484.64 257.932C1490.78 255.079 1496.66 247.308 1500.45 254.875C1504.21 262.441 1516.26 272.046 1516.26 272.046C1516.26 272.046 1511 281.956 1518.26 284.886C1525.52 287.791 1543.16 281.88 1541.04 273.702C1538.93 265.524 1516.73 259.996 1516.5 252.633C1516.26 245.27 1518.97 248.251 1522.53 244.863C1526.05 241.5 1518.65 237.194 1527.11 235.054C1535.61 232.914 1551.54 229.831 1543.04 196.712C1534.55 163.592 1517.2 167.363 1512.97 172.076C1508.74 176.789 1510.15 165.427 1503.42 165.733C1496.69 166.038 1497.75 169.095 1497.75 169.095C1497.75 169.095 1488.54 168.331 1491.9 163.72C1495.28 159.109 1497.86 161.835 1500.92 156.918C1503.98 152.001 1501.86 143.007 1501.86 143.007C1501.86 143.007 1534.43 141.173 1542.69 144.638C1550.95 148.103 1556.65 150.37 1562.33 143.925C1568 137.479 1546.92 132.995 1556.62 130.524C1566.29 128.078 1564.65 125.403 1568.41 134.626C1572.17 143.823 1577.73 139.95 1579.61 135.237C1581.49 130.524 1589.63 126.04 1587.52 136.052C1585.4 146.065 1571.47 145.657 1579.73 156.51C1587.99 167.338 1612.59 179.974 1613.12 188.559C1613.65 197.145 1624.44 168.458 1624.08 161.096C1623.73 153.733 1598.6 151.797 1600.98 143.823C1603.33 135.849 1604.27 137.887 1607.59 140.358C1610.89 142.804 1614.56 143.007 1616.32 139.033C1618.09 135.033 1622.17 139.797 1626.41 139.645C1630.64 139.492 1632.14 125.658 1640.87 128.206C1649.6 130.753 1664.47 131.365 1657.39 125.836C1650.3 120.308 1634.73 122.754 1634.64 116.435C1634.52 110.092 1641.49 106.423 1658.09 116.435C1674.76 126.422 1681.32 115.391 1674.09 108.792ZM1017.55 289.217C1012.11 308.656 993.006 296.58 989.243 299.23C985.48 301.879 977.221 302.287 958.349 293.701C939.478 285.116 934.392 295.128 930.865 300.198C927.337 305.267 913.522 308.478 906.79 297.268C900.059 286.084 889.271 291.587 883.069 288.071C876.866 284.555 880.835 283.765 880.952 281.727C881.07 279.689 888.036 279.154 880.012 267.817C871.987 256.454 857.818 266.492 857.818 266.492C848.853 269.346 838.241 268.123 832.803 267.511C827.365 266.9 821.486 270.365 815.343 276.403C809.199 282.441 803.32 282.441 797.177 280.81C791.033 279.18 793.649 272.021 793.649 272.021C793.649 272.021 825.278 253.627 829.981 248.71C834.714 243.793 841.534 228.66 846.031 230.29C850.528 231.921 854.997 236.838 859.259 235.615C863.492 234.392 867.989 227.437 871.752 226.825C875.514 226.214 897.237 245.754 901.294 248.964C905.379 252.174 904.321 258.009 901.823 260.174C899.353 262.314 895.091 257.55 888.389 259.868C881.658 262.161 895.65 264.938 898.295 269.83C900.941 274.747 912.816 267.053 914.933 261.855C917.049 256.633 919.195 255.104 923.781 251.894C928.366 248.684 917.578 244.379 917.578 244.379C917.578 244.379 898.648 236.965 891.211 226.035C883.774 215.106 895.944 216.94 895.944 216.94C895.944 216.94 918.725 234.621 923.193 236.888C927.69 239.13 927.69 247.767 927.69 250.544C927.69 253.295 939.007 268.785 946.444 270.186C953.881 271.562 955.057 260.531 952.705 255.512C950.354 250.493 947.884 248.098 956.909 249.015C965.933 249.932 968.931 258.671 969.284 262.467C969.637 266.263 986.45 273.549 990.154 270.492C993.887 267.435 1000.41 268.199 1002.18 272.326C1003.94 276.479 1010.73 273.091 1015.9 271.053C1021.11 268.963 1022.99 269.779 1017.55 289.217ZM1047.5 240.124C1045.15 244.633 1030.75 245.856 1020.81 243.614C1010.85 241.372 1003.15 236.048 994.887 238.494C986.627 240.939 990.154 251.181 977.897 243.614C965.639 236.048 980.248 221.526 980.248 221.526C980.248 221.526 989.566 215.284 993.241 215.488C996.886 215.692 1000 225.806 1003.03 226.723C1006.03 227.64 1008.82 224.583 1010.32 216.787C1011.85 209.017 1018.26 206.571 1023.9 212.304C1029.57 218.036 1021.08 218.647 1020.78 222.316C1020.55 226.01 1049.88 235.64 1047.5 240.124ZM1110.82 269.065C1096.65 271.817 1086.92 264.938 1091.71 257.27C1096.51 249.601 1095.8 245.754 1090.3 243.156C1084.81 240.557 1069.46 229.5 1071.73 223.972C1071.73 223.972 1084.1 208.788 1092.24 209.17C1100.39 209.552 1107.47 215.182 1101.8 218.443C1096.12 221.73 1084.34 221.322 1091.65 228.863C1098.97 236.43 1124.11 240.812 1114.55 244.812C1105 248.811 1103.24 247.589 1108.17 252.48C1113.11 257.397 1124.96 266.314 1110.82 269.065Z" fill="white"/>
</g>
</svg>
