<svg width="396" height="81" viewBox="0 0 396 81" fill="none" xmlns="http://www.w3.org/2000/svg">
<g filter="url(#filter0_d_0_95)">
<circle cx="40.5" cy="40.5" r="22.5" fill="white"/>
</g>
<path d="M29.46 41.856V45H27.768V36.528H30.852C31.852 36.528 32.604 36.768 33.108 37.248C33.62 37.728 33.876 38.38 33.876 39.204C33.876 40.012 33.612 40.656 33.084 41.136C32.564 41.616 31.82 41.856 30.852 41.856H29.46ZM30.672 40.5C31.664 40.5 32.16 40.068 32.16 39.204C32.16 38.78 32.044 38.456 31.812 38.232C31.58 38.008 31.2 37.896 30.672 37.896H29.46V40.5H30.672ZM36.667 39.624C36.915 39.2 37.243 38.868 37.651 38.628C38.059 38.38 38.515 38.256 39.019 38.256V40.068H38.527C37.287 40.068 36.667 40.644 36.667 41.796V45H34.975V38.352H36.667V39.624ZM46.2075 41.424C46.2075 41.592 46.1875 41.784 46.1475 42H41.2755C41.2995 42.592 41.4595 43.028 41.7555 43.308C42.0515 43.588 42.4195 43.728 42.8595 43.728C43.2515 43.728 43.5755 43.632 43.8315 43.44C44.0955 43.248 44.2635 42.988 44.3355 42.66H46.1235C46.0355 43.124 45.8475 43.54 45.5595 43.908C45.2715 44.276 44.8995 44.564 44.4435 44.772C43.9955 44.98 43.4955 45.084 42.9435 45.084C42.2955 45.084 41.7195 44.948 41.2155 44.676C40.7115 44.396 40.3195 44 40.0395 43.488C39.7595 42.976 39.6195 42.372 39.6195 41.676C39.6195 40.98 39.7595 40.376 40.0395 39.864C40.3195 39.344 40.7115 38.948 41.2155 38.676C41.7195 38.404 42.2955 38.268 42.9435 38.268C43.5995 38.268 44.1715 38.404 44.6595 38.676C45.1555 38.948 45.5355 39.324 45.7995 39.804C46.0715 40.276 46.2075 40.816 46.2075 41.424ZM44.5035 41.256C44.5275 40.712 44.3835 40.3 44.0715 40.02C43.7675 39.74 43.3915 39.6 42.9435 39.6C42.4875 39.6 42.1035 39.74 41.7915 40.02C41.4795 40.3 41.3075 40.712 41.2755 41.256H44.5035ZM50.3006 43.308L51.9806 38.352H53.7806L51.3206 45H49.2566L46.7966 38.352H48.6086L50.3006 43.308Z" fill="#22283C"/>
<g filter="url(#filter1_d_0_95)">
<circle cx="105.5" cy="40.5" r="22.5" fill="white"/>
</g>
<path d="M100.564 40.692C100.564 43.564 101.644 45 103.804 45C104.948 45 105.772 44.616 106.276 43.848C106.78 43.08 107.032 42.028 107.032 40.692C107.032 39.364 106.78 38.316 106.276 37.548C105.772 36.78 104.948 36.396 103.804 36.396C101.644 36.396 100.564 37.828 100.564 40.692ZM105.364 40.692C105.364 41.564 105.256 42.236 105.04 42.708C104.832 43.172 104.42 43.404 103.804 43.404C103.18 43.404 102.76 43.172 102.544 42.708C102.336 42.236 102.232 41.564 102.232 40.692C102.232 39.828 102.336 39.164 102.544 38.7C102.76 38.228 103.18 37.992 103.804 37.992C104.42 37.992 104.832 38.228 105.04 38.7C105.256 39.164 105.364 39.828 105.364 40.692ZM107.726 38.112V36.528H110.774V45H108.998V38.112H107.726Z" fill="#9DA1B4"/>
<g filter="url(#filter2_d_0_95)">
<circle cx="170.5" cy="40.5" r="22.5" fill="white"/>
</g>
<path d="M163.564 40.692C163.564 43.564 164.644 45 166.804 45C167.948 45 168.772 44.616 169.276 43.848C169.78 43.08 170.032 42.028 170.032 40.692C170.032 39.364 169.78 38.316 169.276 37.548C168.772 36.78 167.948 36.396 166.804 36.396C164.644 36.396 163.564 37.828 163.564 40.692ZM168.364 40.692C168.364 41.564 168.256 42.236 168.04 42.708C167.832 43.172 167.42 43.404 166.804 43.404C166.18 43.404 165.76 43.172 165.544 42.708C165.336 42.236 165.232 41.564 165.232 40.692C165.232 39.828 165.336 39.164 165.544 38.7C165.76 38.228 166.18 37.992 166.804 37.992C167.42 37.992 167.832 38.228 168.04 38.7C168.256 39.164 168.364 39.828 168.364 40.692ZM171.026 43.668C173.738 41.788 175.094 40.228 175.094 38.988C175.094 38.612 175.002 38.316 174.818 38.1C174.642 37.884 174.362 37.776 173.978 37.776C173.186 37.776 172.766 38.316 172.718 39.396H171.074C171.122 38.396 171.426 37.64 171.986 37.128C172.546 36.608 173.254 36.348 174.11 36.348C174.982 36.348 175.65 36.576 176.114 37.032C176.586 37.48 176.822 38.08 176.822 38.832C176.822 39.424 176.646 40.02 176.294 40.62C175.95 41.212 175.51 41.76 174.974 42.264C174.438 42.76 173.874 43.188 173.282 43.548H176.99V44.928H171.026V43.668Z" fill="#9DA1B4"/>
<g filter="url(#filter3_d_0_95)">
<circle cx="235.5" cy="40.5" r="22.5" fill="white"/>
</g>
<path d="M228.564 40.692C228.564 43.564 229.644 45 231.804 45C232.948 45 233.772 44.616 234.276 43.848C234.78 43.08 235.032 42.028 235.032 40.692C235.032 39.364 234.78 38.316 234.276 37.548C233.772 36.78 232.948 36.396 231.804 36.396C229.644 36.396 228.564 37.828 228.564 40.692ZM233.364 40.692C233.364 41.564 233.256 42.236 233.04 42.708C232.832 43.172 232.42 43.404 231.804 43.404C231.18 43.404 230.76 43.172 230.544 42.708C230.336 42.236 230.232 41.564 230.232 40.692C230.232 39.828 230.336 39.164 230.544 38.7C230.76 38.228 231.18 37.992 231.804 37.992C232.42 37.992 232.832 38.228 233.04 38.7C233.256 39.164 233.364 39.828 233.364 40.692ZM239.194 36.204C239.77 36.204 240.262 36.304 240.67 36.504C241.086 36.704 241.398 36.98 241.606 37.332C241.822 37.684 241.93 38.076 241.93 38.508C241.93 39.052 241.782 39.5 241.486 39.852C241.19 40.196 240.798 40.408 240.31 40.488V40.548C241.494 40.9 242.086 41.596 242.086 42.636C242.086 43.364 241.842 43.956 241.354 44.412C240.866 44.86 240.178 45.084 239.29 45.084C238.346 45.084 237.594 44.852 237.034 44.388C236.474 43.916 236.162 43.208 236.098 42.264H237.754C237.794 42.696 237.934 43.04 238.174 43.296C238.422 43.544 238.77 43.668 239.218 43.668C239.602 43.668 239.902 43.564 240.118 43.356C240.334 43.14 240.442 42.86 240.442 42.516C240.442 42.108 240.286 41.796 239.974 41.58C239.662 41.364 239.202 41.256 238.594 41.256H238.246V39.876H238.594C239.714 39.892 240.274 39.504 240.274 38.712C240.274 38.368 240.174 38.1 239.974 37.908C239.774 37.708 239.502 37.608 239.158 37.608C238.798 37.608 238.502 37.724 238.27 37.956C238.038 38.18 237.906 38.496 237.874 38.904H236.218C236.266 38.04 236.546 37.376 237.058 36.912C237.57 36.44 238.282 36.204 239.194 36.204Z" fill="#9DA1B4"/>
<g filter="url(#filter4_d_0_95)">
<circle cx="300.5" cy="40.5" r="22.5" fill="white"/>
</g>
<path d="M293.564 40.692C293.564 43.564 294.644 45 296.804 45C297.948 45 298.772 44.616 299.276 43.848C299.78 43.08 300.032 42.028 300.032 40.692C300.032 39.364 299.78 38.316 299.276 37.548C298.772 36.78 297.948 36.396 296.804 36.396C294.644 36.396 293.564 37.828 293.564 40.692ZM298.364 40.692C298.364 41.564 298.256 42.236 298.04 42.708C297.832 43.172 297.42 43.404 296.804 43.404C296.18 43.404 295.76 43.172 295.544 42.708C295.336 42.236 295.232 41.564 295.232 40.692C295.232 39.828 295.336 39.164 295.544 38.7C295.76 38.228 296.18 37.992 296.804 37.992C297.42 37.992 297.832 38.228 298.04 38.7C298.256 39.164 298.364 39.828 298.364 40.692ZM301.05 43.296V41.892L305.106 36.432H306.918V41.832H308.022V43.296H306.918V45H305.214V43.296H301.05ZM305.346 38.412L302.778 41.832H305.346V38.412Z" fill="#9DA1B4"/>
<g filter="url(#filter5_d_0_95)">
<circle cx="355.5" cy="40.5" r="22.5" fill="white"/>
</g>
<path d="M349.992 45H348.312L344.508 39.252V45H342.828V36.612H344.508L348.312 42.372V36.612H349.992V45ZM357.832 41.532C357.832 41.772 357.816 41.988 357.784 42.18H352.924C352.964 42.66 353.132 43.036 353.428 43.308C353.724 43.58 354.088 43.716 354.52 43.716C355.144 43.716 355.588 43.448 355.852 42.912H357.664C357.472 43.552 357.104 44.08 356.56 44.496C356.016 44.904 355.348 45.108 354.556 45.108C353.916 45.108 353.34 44.968 352.828 44.688C352.324 44.4 351.928 43.996 351.64 43.476C351.36 42.956 351.22 42.356 351.22 41.676C351.22 40.988 351.36 40.384 351.64 39.864C351.92 39.344 352.312 38.944 352.816 38.664C353.32 38.384 353.9 38.244 354.556 38.244C355.188 38.244 355.752 38.38 356.248 38.652C356.752 38.924 357.14 39.312 357.412 39.816C357.692 40.312 357.832 40.884 357.832 41.532ZM356.092 41.052C356.084 40.62 355.928 40.276 355.624 40.02C355.32 39.756 354.948 39.624 354.508 39.624C354.092 39.624 353.74 39.752 353.452 40.008C353.172 40.256 353 40.604 352.936 41.052H356.092ZM362.73 45L361.362 42.936L360.15 45H358.35L360.522 41.664L358.326 38.352H360.222L361.578 40.404L362.802 38.352H364.602L362.418 41.664L364.626 45H362.73ZM367.495 39.732V42.948C367.495 43.172 367.547 43.336 367.651 43.44C367.763 43.536 367.947 43.584 368.203 43.584H368.983V45H367.927C366.511 45 365.803 44.312 365.803 42.936V39.732H365.011V38.352H365.803V36.708H367.495V38.352H368.983V39.732H367.495Z" fill="#6347F9"/>
<defs>
<filter id="filter0_d_0_95" x="0" y="0" width="81" height="81" filterUnits="userSpaceOnUse" color-interpolation-filters="sRGB">
<feFlood flood-opacity="0" result="BackgroundImageFix"/>
<feColorMatrix in="SourceAlpha" type="matrix" values="0 0 0 0 0 0 0 0 0 0 0 0 0 0 0 0 0 0 127 0" result="hardAlpha"/>
<feOffset/>
<feGaussianBlur stdDeviation="9"/>
<feColorMatrix type="matrix" values="0 0 0 0 0.130278 0 0 0 0 0.15406 0 0 0 0 0.233333 0 0 0 0.12 0"/>
<feBlend mode="normal" in2="BackgroundImageFix" result="effect1_dropShadow_0_95"/>
<feBlend mode="normal" in="SourceGraphic" in2="effect1_dropShadow_0_95" result="shape"/>
</filter>
<filter id="filter1_d_0_95" x="65" y="0" width="81" height="81" filterUnits="userSpaceOnUse" color-interpolation-filters="sRGB">
<feFlood flood-opacity="0" result="BackgroundImageFix"/>
<feColorMatrix in="SourceAlpha" type="matrix" values="0 0 0 0 0 0 0 0 0 0 0 0 0 0 0 0 0 0 127 0" result="hardAlpha"/>
<feOffset/>
<feGaussianBlur stdDeviation="9"/>
<feColorMatrix type="matrix" values="0 0 0 0 0.130278 0 0 0 0 0.15406 0 0 0 0 0.233333 0 0 0 0.12 0"/>
<feBlend mode="normal" in2="BackgroundImageFix" result="effect1_dropShadow_0_95"/>
<feBlend mode="normal" in="SourceGraphic" in2="effect1_dropShadow_0_95" result="shape"/>
</filter>
<filter id="filter2_d_0_95" x="130" y="0" width="81" height="81" filterUnits="userSpaceOnUse" color-interpolation-filters="sRGB">
<feFlood flood-opacity="0" result="BackgroundImageFix"/>
<feColorMatrix in="SourceAlpha" type="matrix" values="0 0 0 0 0 0 0 0 0 0 0 0 0 0 0 0 0 0 127 0" result="hardAlpha"/>
<feOffset/>
<feGaussianBlur stdDeviation="9"/>
<feColorMatrix type="matrix" values="0 0 0 0 0.130278 0 0 0 0 0.15406 0 0 0 0 0.233333 0 0 0 0.12 0"/>
<feBlend mode="normal" in2="BackgroundImageFix" result="effect1_dropShadow_0_95"/>
<feBlend mode="normal" in="SourceGraphic" in2="effect1_dropShadow_0_95" result="shape"/>
</filter>
<filter id="filter3_d_0_95" x="195" y="0" width="81" height="81" filterUnits="userSpaceOnUse" color-interpolation-filters="sRGB">
<feFlood flood-opacity="0" result="BackgroundImageFix"/>
<feColorMatrix in="SourceAlpha" type="matrix" values="0 0 0 0 0 0 0 0 0 0 0 0 0 0 0 0 0 0 127 0" result="hardAlpha"/>
<feOffset/>
<feGaussianBlur stdDeviation="9"/>
<feColorMatrix type="matrix" values="0 0 0 0 0.130278 0 0 0 0 0.15406 0 0 0 0 0.233333 0 0 0 0.12 0"/>
<feBlend mode="normal" in2="BackgroundImageFix" result="effect1_dropShadow_0_95"/>
<feBlend mode="normal" in="SourceGraphic" in2="effect1_dropShadow_0_95" result="shape"/>
</filter>
<filter id="filter4_d_0_95" x="260" y="0" width="81" height="81" filterUnits="userSpaceOnUse" color-interpolation-filters="sRGB">
<feFlood flood-opacity="0" result="BackgroundImageFix"/>
<feColorMatrix in="SourceAlpha" type="matrix" values="0 0 0 0 0 0 0 0 0 0 0 0 0 0 0 0 0 0 127 0" result="hardAlpha"/>
<feOffset/>
<feGaussianBlur stdDeviation="9"/>
<feColorMatrix type="matrix" values="0 0 0 0 0.130278 0 0 0 0 0.15406 0 0 0 0 0.233333 0 0 0 0.12 0"/>
<feBlend mode="normal" in2="BackgroundImageFix" result="effect1_dropShadow_0_95"/>
<feBlend mode="normal" in="SourceGraphic" in2="effect1_dropShadow_0_95" result="shape"/>
</filter>
<filter id="filter5_d_0_95" x="315" y="0" width="81" height="81" filterUnits="userSpaceOnUse" color-interpolation-filters="sRGB">
<feFlood flood-opacity="0" result="BackgroundImageFix"/>
<feColorMatrix in="SourceAlpha" type="matrix" values="0 0 0 0 0 0 0 0 0 0 0 0 0 0 0 0 0 0 127 0" result="hardAlpha"/>
<feOffset/>
<feGaussianBlur stdDeviation="9"/>
<feColorMatrix type="matrix" values="0 0 0 0 0.130278 0 0 0 0 0.15406 0 0 0 0 0.233333 0 0 0 0.12 0"/>
<feBlend mode="normal" in2="BackgroundImageFix" result="effect1_dropShadow_0_95"/>
<feBlend mode="normal" in="SourceGraphic" in2="effect1_dropShadow_0_95" result="shape"/>
</filter>
</defs>
</svg>
